<?xml version="1.0" encoding="UTF-8"?>
<svg version="1.1" xmlns="http://www.w3.org/2000/svg" width="40" height="40">
<path d="M0 0 C13.2 0 26.4 0 40 0 C40 13.2 40 26.4 40 40 C26.8 40 13.6 40 0 40 C0 26.8 0 13.6 0 0 Z " fill="#CCCCCC" transform="translate(0,0)"/>
<path d="M0 0 C5.28 0 10.56 0 16 0 C16 13.2 16 26.4 16 40 C13.03 40 10.06 40 7 40 C6.01 39.01 5.02 38.02 4 37 C1.39388923 36.27802838 1.39388923 36.27802838 -1 36 C-1.375 33.75 -1.375 33.75 -1 31 C0.95890881 29.60699818 2.9639118 28.27754554 5 27 C8.49273717 22.78462755 8.66674296 18.27465451 9 13 C8.34 13 7.68 13 7 13 C7 15.64 7 18.28 7 21 C6.34 21.33 5.68 21.66 5 22 C5 19.03 5 16.06 5 13 C3.02 13 1.04 13 -1 13 C-1 12.67 -1 12.34 -1 12 C0.98 12 2.96 12 5 12 C5 11.34 5 10.68 5 10 C3.02 10 1.04 10 -1 10 C-1 9.67 -1 9.34 -1 9 C0.98 9 2.96 9 5 9 C3.12297673 4.10437307 3.12297673 4.10437307 0 0 Z " fill="#CCCCCC" transform="translate(24,0)"/>
<path d="M0 0 C0.639375 -0.01289063 1.27875 -0.02578125 1.9375 -0.0390625 C5.35693759 1.06189279 6.83660279 2.792244 9 5.625 C9.686206 8.48528087 9.65606475 11.19667629 9.5625 14.125 C9.57345703 14.87136719 9.58441406 15.61773437 9.59570312 16.38671875 C9.54461311 20.23549994 9.23410888 22.24319153 7.1796875 25.59375 C4.16218585 28.40575871 2.08011833 28.625 -2 28.625 C-5.57387602 27.03661066 -6.81089572 25.90865642 -9 22.625 C-9.27487822 19.78362728 -9.41589299 17.09252275 -9.4375 14.25 C-9.47037109 13.49460937 -9.50324219 12.73921875 -9.53710938 11.9609375 C-9.57757209 7.75281519 -9.35099808 6.08737826 -6.72265625 2.625 C-3.06504626 -0.06179529 -3.06504626 -0.06179529 0 0 Z " fill="#FDFDFD" transform="translate(20,-0.625)"/>
<path d="M0 0 C0.66 0 1.32 0 2 0 C2.08636719 0.66386719 2.17273438 1.32773438 2.26171875 2.01171875 C2.95551022 6.3717844 3.61334777 9.43139377 6.125 13.125 C9.37340242 15.24352331 11.25321354 15.75683294 15.0703125 15.46875 C18.66396809 14.59579723 19.94989773 13.01485627 22 10 C22.96321269 6.69683605 23.55646555 3.40925734 24 0 C24.66 0 25.32 0 26 0 C26.57007576 9.69128788 26.57007576 9.69128788 23 14 C18.56756757 18 18.56756757 18 16 18 C16 19.65 16 21.3 16 23 C18.31 23.33 20.62 23.66 23 24 C23.33 24.99 23.66 25.98 24 27 C16.74 27 9.48 27 2 27 C2.33 26.01 2.66 25.02 3 24 C6.465 23.505 6.465 23.505 10 23 C10 21.35 10 19.7 10 18 C9.2575 17.7525 8.515 17.505 7.75 17.25 C4.75159001 15.88708637 3.12040455 14.49904822 1 12 C0.03929566 9.11788698 -0.10581883 7.30149956 -0.0625 4.3125 C-0.05347656 3.50425781 -0.04445313 2.69601563 -0.03515625 1.86328125 C-0.02355469 1.24839844 -0.01195312 0.63351562 0 0 Z " fill="#FCFCFC" transform="translate(7,13)"/>
</svg>
